Coordinates
version=1
nRows=24
nColumns=24
inDegrees=yes

Units are S.I. units (second, meters, Newtons, ...)
Angles are in degrees.

endheader
time	pelvis_tilt	pelvis_list	pelvis_rotation	pelvis_tx	pelvis_ty	pelvis_tz	hip_flexion_r	hip_adduction_r	hip_rotation_r	knee_angle_r	ankle_angle_r	subtalar_angle_r	mtp_angle_r	hip_flexion_l	hip_adduction_l	hip_rotation_l	knee_angle_l	ankle_angle_l	subtalar_angle_l	mtp_angle_l	lumbar_extension	lumbar_bending	lumbar_rotation
      6.04000000	     -3.62766514	      8.55571890	     -4.30826244	      1.73721710	      1.01883158	     -0.24980870	      9.78968767	    -13.13971542	     -4.67331550	    -61.35566691	    -11.97077604	      0.61973531	      0.00000000	     17.34838100	     10.94288441	     -5.65595413	    -14.47439960	      7.92168060	     -8.07740955	      0.00000000	     -7.98664552	    -11.85826835	      2.41283477
      6.04500000	     -3.54832728	      8.64548989	     -4.34701499	      1.74331954	      1.01954060	     -0.25036040	     10.52129983	    -13.22547555	     -4.54416702	    -62.24609359	    -11.01687869	      0.63677372	      0.00000000	     16.73080231	     11.13636689	     -5.52731534	    -14.13868673	      8.12696676	     -8.12639202	      0.00000000	     -8.05522145	    -11.90924882	      2.21221771
      6.05000000	     -3.46265544	      8.70045795	     -4.37456646	      1.74934738	      1.02028473	     -0.25092170	     11.23379989	    -13.26699562	     -4.43601554	    -63.06619406	     -9.92855807	      0.72770864	      0.00000000	     16.09968183	     11.30158784	     -5.35490210	    -13.78918272	      8.27915372	     -8.22858984	      0.00000000	     -8.14833839	    -11.91730780	      2.01621636
      6.05500000	     -3.35297897	      8.75007269	     -4.40278004	      1.75536101	      1.02107083	     -0.25153175	     11.91200644	    -13.30932469	     -4.35861834	    -63.81520126	     -8.75737266	      0.83652990	      0.00000000	     15.42043594	     11.47858801	     -5.09535365	    -13.38994102	      8.32718843	     -8.49209642	      0.00000000	     -8.27021047	    -11.91107728	      1.84238980
      6.06000000	     -3.25451973	      8.75346988	     -4.37705754	      1.76136247	      1.02187165	     -0.25215930	     12.56284998	    -13.30070286	     -4.34915634	    -64.47979282	     -7.51604374	      0.98499388	      0.00000000	     14.74937675	     11.61026195	     -4.82506967	    -13.00721020	      8.41561309	     -8.65676320	      0.00000000	     -8.38790380	    -11.85043743	      1.60995183
      6.06500000	     -3.17111867	      8.71481093	     -4.33130282	      1.76735984	      1.02265757	     -0.25281179	     13.20762976	    -13.24707624	     -4.37508888	    -65.07213476	     -6.23845909	      1.16965423	      0.00000000	     14.09044448	     11.69892931	     -4.55886454	    -12.63141563	      8.53897950	     -8.80193318	      0.00000000	     -8.48709898	    -11.73133346	      1.35685688
      6.07000000	     -3.05749348	      8.69860619	     -4.28049854	      1.77338125	      1.02349692	     -0.25349251	     13.80802768	    -13.22506880	     -4.43092120	    -65.59195381	     -4.95318064	      1.31531828	      0.00000000	     13.35740886	     11.82518925	     -4.14185383	    -12.17234069	      8.51093180	     -9.11226569	      0.00000000	     -8.61493918	    -11.64189787	      1.10661590
      6.07500000	     -2.99906952	      8.59547281	     -4.20529497	      1.77930194	      1.02429356	     -0.25410428	     14.44215977	    -13.08528160	     -4.50344363	    -66.03484924	     -3.67001825	      1.47845309	      0.00000000	     12.71323111	     11.83504416	     -3.85077268	    -11.79048472	      8.62351270	     -9.18451521	      0.00000000	     -8.69688795	    -11.45367535	      0.85864458
      6.08000000	     -2.87761233	      8.55515737	     -4.09579511	      1.78531468	      1.02513324	     -0.25491211	     14.99040580	    -13.06213535	     -4.66519651	    -66.41521661	     -2.39324689	      1.60314382	      0.00000000	     11.95140257	     11.94952480	     -3.36502203	    -11.30483582	      8.53331604	     -9.58008719	      0.00000000	     -8.83843852	    -11.31951289	      0.56524373
      6.08500000	     -2.81749096	      8.42981187	     -3.98862544	      1.79123744	      1.02591202	     -0.25561442	     15.58784185	    -12.91500748	     -4.81185478	    -66.72148793	     -1.15419210	      1.73752372	      0.00000000	     11.29000073	     11.94139370	     -3.06692237	    -10.89788552	      8.60882121	     -9.70767981	      0.00000000	     -8.91621379	    -11.09004457	      0.29844915
      6.09000000	     -2.72559185	      8.33398245	     -3.83584882	      1.79719208	      1.02674348	     -0.25639583	     16.12164344	    -12.81943365	     -5.02271002	    -66.95123414	      0.05618088	      1.82808072	      0.00000000	     10.55551386	     11.97882293	     -2.60280036	    -10.42145949	      8.52156721	     -9.98295301	      0.00000000	     -9.03304579	    -10.89557575	      0.00112747
      6.09500000	     -2.62624670	      8.21229061	     -3.69796486	      1.80309874	      1.02754672	     -0.25715211	     16.64630450	    -12.68689127	     -5.22867102	    -67.12137723	      1.17691909	      1.86701207	      0.00000000	      9.80727839	     11.98046031	     -2.10979265	     -9.93705275	      8.48238314	    -10.25673604	      0.00000000	     -9.16277510	    -10.67143100	     -0.29288215
      6.10000000	     -2.55912472	      8.06258515	     -3.54165688	      1.80900073	      1.02833120	     -0.25790286	     17.17756925	    -12.51982176	     -5.45801468	    -67.21159073	      2.26527168	      1.92013065	      0.00000000	      9.10331626	     11.94041041	     -1.72647912	     -9.47178830	      8.44383505	    -10.44676145	      0.00000000	     -9.25118555	    -10.41185315	     -0.58007835
      6.10500000	     -2.46957544	      7.91144381	     -3.38058089	      1.81488353	      1.02909984	     -0.25867578	     17.67593604	    -12.35555514	     -5.70763699	    -67.24202134	      3.27439525	      1.92383797	      0.00000000	      8.35372360	     11.89931152	     -1.22710218	     -8.97010841	      8.38628034	    -10.71803935	      0.00000000	     -9.36912876	    -10.15069266	     -0.87435762
      6.11000000	     -2.40534536	      7.73631839	     -3.20987899	      1.82075090	      1.02985064	     -0.25942609	     18.17830466	    -12.15831326	     -5.96721266	    -67.19636424	      4.24382190	      1.95105478	      0.00000000	      7.63846689	     11.82101427	     -0.82076733	     -8.47730705	      8.31621176	    -10.93049903	      0.00000000	     -9.45600266	     -9.86148990	     -1.16730008
      6.11500000	     -2.32033729	      7.56179997	     -3.03783150	      1.82659844	      1.03057493	     -0.26018334	     18.65006411	    -11.96486020	     -6.24338240	    -67.09310526	      5.14524172	      1.94225433	      0.00000000	      6.88207824	     11.74022402	     -0.31061459	     -7.95231577	      8.23433917	    -11.21257967	      0.00000000	     -9.56853730	     -9.57416409	     -1.45310826
      6.12000000	     -2.24673689	      7.37292057	     -2.86796600	      1.83242878	      1.03127554	     -0.26090877	     19.11767003	    -11.74695463	     -6.51590777	    -66.92007549	      6.00963136	      1.95575764	      0.00000000	      6.13761472	     11.63349894	      0.15449114	     -7.42013687	      8.13655696	    -11.47713047	      0.00000000	     -9.66693208	     -9.27228083	     -1.73150498
      6.12500000	     -2.24996411	      7.17043570	     -2.75694953	      1.83818821	      1.03182559	     -0.26146662	     19.68271043	    -11.46814528	     -6.69952653	    -66.70250886	      6.85062272	      2.01544893	      0.00000000	      5.51213263	     11.48368140	      0.40660278	     -6.93802883	      8.15953373	    -11.54093402	      0.00000000	     -9.66892036	     -8.97015478	     -1.92623034
      6.13000000	     -2.11382569	      6.98101558	     -2.50778363	      1.84404838	      1.03255181	     -0.26233578	     20.02333718	    -11.29116040	     -7.08590829	    -66.39070867	      7.63936328	      2.03136856	      0.00000000	      4.64919838	     11.38237890	      1.10038245	     -6.31990625	      7.90203175	    -12.04035075	      0.00000000	     -9.84512708	     -8.65255050	     -2.29770971
      6.13500000	     -2.05372670	      6.77785901	     -2.33218246	      1.84982893	      1.03313850	     -0.26299823	     20.46138443	    -11.04220954	     -7.35283136	    -66.03109786	      8.43573548	      2.13566242	      0.00000000	      3.91173244	     11.23482028	      1.52358693	     -5.75748087	      7.75944223	    -12.31117974	      0.00000000	     -9.92739765	     -8.33848127	     -2.58032972
      6.14000000	     -1.98510059	      6.57759689	     -2.16137426	      1.85560903	      1.03366747	     -0.26365086	     20.87863605	    -10.79483659	     -7.62209943	    -65.61454422	      9.21805198	      2.24596293	      0.00000000	      3.15099077	     11.08290632	      1.99407316	     -5.16775421	      7.61480971	    -12.62089554	      0.00000000	    -10.01313889	     -8.02916775	     -2.83724253
      6.14500000	     -1.93493609	      6.37762025	     -1.98106531	      1.86135775	      1.03414630	     -0.26426780	     21.29802376	    -10.53926758	     -7.88157920	    -65.13478244	     10.00174984	      2.41280564	      0.00000000	      2.41814982	     10.92029845	      2.41009148	     -4.58511473	      7.46290383	    -12.88299704	      0.00000000	    -10.08204461	     -7.72319068	     -3.11981645
      6.15000000	     -1.88398212	      6.17842256	     -1.81347810	      1.86711098	      1.03456348	     -0.26484621	     21.70414753	    -10.27618355	     -8.12547122	    -64.59643724	     10.78132006	      2.61266299	      0.00000000	      1.67814693	     10.74968582	      2.81530317	     -3.98579233	      7.31599058	    -13.15201430	      0.00000000	    -10.14508908	     -7.42234860	     -3.38347754
      6.15500000	     -1.84489404	      5.98338758	     -1.64953590	      1.87284345	      1.03491865	     -0.26537996	     22.10805314	    -10.00671456	     -8.35258959	    -63.99606176	     11.56068859	      2.84572348	      0.00000000	      0.95594608	     10.57302780	      3.18489099	     -3.38993110	      7.17428158	    -13.38087909	      0.00000000	    -10.19423361	     -7.13030032	     -3.62879151
